<?xml version="1.0" encoding="UTF-8"?>
<svg xmlns="http://www.w3.org/2000/svg" xmlns:xlink="http://www.w3.org/1999/xlink" width="24pt" height="24pt" viewBox="0 0 24 24" version="1.1">
<g id="surface1">
<path style=" stroke:none;fill-rule:nonzero;fill:rgb(0%,0%,0%);fill-opacity:1;" d="M 6.011719 15.707031 C 5.914062 15.707031 5.816406 15.671875 5.746094 15.597656 C 5.597656 15.449219 5.597656 15.214844 5.746094 15.066406 L 14.691406 6.121094 C 14.835938 5.976562 15.074219 5.976562 15.21875 6.121094 C 15.367188 6.269531 15.367188 6.503906 15.21875 6.652344 L 6.273438 15.597656 C 6.203125 15.671875 6.105469 15.707031 6.011719 15.707031 Z M 6.011719 15.707031 "/>
<path style=" stroke:none;fill-rule:nonzero;fill:rgb(0%,0%,0%);fill-opacity:1;" d="M 8.65625 18.355469 C 8.5625 18.355469 8.464844 18.316406 8.390625 18.246094 C 8.246094 18.097656 8.246094 17.859375 8.390625 17.714844 L 17.335938 8.769531 C 17.484375 8.621094 17.722656 8.621094 17.867188 8.769531 C 18.015625 8.914062 18.015625 9.152344 17.867188 9.300781 L 8.921875 18.246094 C 8.847656 18.316406 8.753906 18.355469 8.65625 18.355469 Z M 8.65625 18.355469 "/>
<path style=" stroke:none;fill-rule:nonzero;fill:rgb(0%,0%,0%);fill-opacity:1;" d="M 5.746094 17.03125 C 5.722656 17.03125 5.695312 17.03125 5.671875 17.023438 C 5.46875 16.984375 5.335938 16.785156 5.378906 16.582031 L 5.644531 15.257812 C 5.683594 15.054688 5.882812 14.921875 6.085938 14.964844 C 6.289062 15.003906 6.417969 15.203125 6.378906 15.40625 L 6.113281 16.730469 C 6.078125 16.910156 5.921875 17.03125 5.746094 17.03125 Z M 5.746094 17.03125 "/>
<path style=" stroke:none;fill-rule:nonzero;fill:rgb(0%,0%,0%);fill-opacity:1;" d="M 7.335938 18.621094 C 7.160156 18.621094 7.003906 18.496094 6.96875 18.320312 C 6.929688 18.113281 7.058594 17.917969 7.261719 17.875 L 8.582031 17.609375 C 8.785156 17.570312 8.984375 17.703125 9.023438 17.90625 C 9.066406 18.109375 8.933594 18.304688 8.730469 18.347656 L 7.410156 18.613281 C 7.386719 18.617188 7.359375 18.621094 7.335938 18.621094 Z M 7.335938 18.621094 "/>
<path style=" stroke:none;fill-rule:nonzero;fill:rgb(0%,0%,0%);fill-opacity:1;" d="M 7.335938 18.621094 C 7.238281 18.621094 7.144531 18.582031 7.070312 18.511719 L 5.480469 16.921875 C 5.332031 16.777344 5.332031 16.539062 5.480469 16.390625 C 5.625 16.246094 5.863281 16.246094 6.007812 16.390625 L 7.601562 17.980469 C 7.746094 18.125 7.746094 18.363281 7.601562 18.507812 C 7.527344 18.582031 7.433594 18.621094 7.335938 18.621094 Z M 7.335938 18.621094 "/>
<path style=" stroke:none;fill-rule:nonzero;fill:rgb(0%,0%,0%);fill-opacity:1;" d="M 4.683594 18.625 C 4.613281 18.625 4.539062 18.601562 4.476562 18.5625 C 4.304688 18.445312 4.257812 18.214844 4.371094 18.039062 L 5.433594 16.449219 C 5.546875 16.277344 5.78125 16.230469 5.953125 16.34375 C 6.125 16.460938 6.171875 16.691406 6.058594 16.867188 L 4.996094 18.457031 C 4.925781 18.566406 4.804688 18.625 4.683594 18.625 Z M 4.683594 18.625 "/>
<path style=" stroke:none;fill-rule:nonzero;fill:rgb(0%,0%,0%);fill-opacity:1;" d="M 5.746094 19.683594 C 5.625 19.683594 5.503906 19.625 5.433594 19.515625 C 5.316406 19.34375 5.363281 19.113281 5.535156 18.996094 L 7.128906 17.9375 C 7.300781 17.820312 7.53125 17.867188 7.648438 18.039062 C 7.761719 18.214844 7.714844 18.445312 7.542969 18.5625 L 5.953125 19.621094 C 5.886719 19.664062 5.816406 19.683594 5.746094 19.683594 Z M 5.746094 19.683594 "/>
<path style=" stroke:none;fill-rule:nonzero;fill:rgb(0%,0%,0%);fill-opacity:1;" d="M 5.746094 19.683594 C 5.648438 19.683594 5.550781 19.648438 5.480469 19.574219 L 4.417969 18.515625 C 4.273438 18.367188 4.273438 18.128906 4.417969 17.984375 C 4.566406 17.835938 4.800781 17.835938 4.949219 17.984375 L 6.007812 19.042969 C 6.15625 19.191406 6.15625 19.425781 6.007812 19.574219 C 5.9375 19.648438 5.839844 19.683594 5.746094 19.683594 Z M 5.746094 19.683594 "/>
<path style=" stroke:none;fill-rule:nonzero;fill:rgb(0%,0%,0%);fill-opacity:1;" d="M 0.375 23.992188 C 0.277344 23.992188 0.183594 23.957031 0.109375 23.882812 C -0.0351562 23.738281 -0.0351562 23.5 0.109375 23.351562 L 4.949219 18.515625 C 5.09375 18.367188 5.332031 18.367188 5.480469 18.515625 C 5.625 18.660156 5.625 18.898438 5.480469 19.042969 L 0.640625 23.882812 C 0.566406 23.957031 0.472656 23.992188 0.375 23.992188 Z M 0.375 23.992188 "/>
<path style=" stroke:none;fill-rule:nonzero;fill:rgb(0%,0%,0%);fill-opacity:1;" d="M 14.820312 6.632812 C 14.722656 6.632812 14.628906 6.59375 14.554688 6.519531 C 14.191406 6.15625 14.191406 5.5625 14.554688 5.195312 C 14.921875 4.828125 15.515625 4.828125 15.878906 5.195312 C 16.027344 5.34375 16.027344 5.578125 15.878906 5.726562 C 15.734375 5.871094 15.496094 5.871094 15.351562 5.726562 C 15.277344 5.652344 15.160156 5.652344 15.085938 5.726562 C 15.011719 5.796875 15.011719 5.917969 15.085938 5.992188 C 15.230469 6.136719 15.230469 6.375 15.085938 6.519531 C 15.011719 6.59375 14.917969 6.632812 14.820312 6.632812 Z M 14.820312 6.632812 "/>
<path style=" stroke:none;fill-rule:nonzero;fill:rgb(0%,0%,0%);fill-opacity:1;" d="M 18.136719 9.710938 C 17.882812 9.710938 17.648438 9.613281 17.472656 9.4375 C 17.324219 9.292969 17.324219 9.054688 17.472656 8.90625 C 17.617188 8.761719 17.855469 8.761719 18.003906 8.90625 C 18.050781 8.957031 18.105469 8.964844 18.136719 8.964844 C 18.164062 8.964844 18.21875 8.957031 18.265625 8.90625 C 18.316406 8.859375 18.324219 8.804688 18.324219 8.777344 C 18.324219 8.746094 18.316406 8.691406 18.269531 8.644531 C 18.121094 8.496094 18.121094 8.257812 18.269531 8.113281 C 18.414062 7.964844 18.652344 7.964844 18.796875 8.113281 C 18.976562 8.289062 19.074219 8.523438 19.074219 8.777344 C 19.074219 9.027344 18.972656 9.261719 18.796875 9.4375 C 18.621094 9.613281 18.386719 9.710938 18.136719 9.710938 Z M 18.136719 9.710938 "/>
<path style=" stroke:none;fill-rule:nonzero;fill:rgb(0%,0%,0%);fill-opacity:1;" d="M 20.273438 1.710938 C 20.175781 1.710938 20.082031 1.671875 20.007812 1.601562 C 19.828125 1.425781 19.734375 1.1875 19.734375 0.9375 C 19.734375 0.6875 19.828125 0.453125 20.007812 0.273438 C 20.371094 -0.0898438 20.964844 -0.09375 21.332031 0.273438 C 21.480469 0.421875 21.480469 0.65625 21.332031 0.804688 C 21.1875 0.953125 20.949219 0.953125 20.800781 0.804688 C 20.730469 0.730469 20.609375 0.730469 20.535156 0.804688 C 20.488281 0.851562 20.480469 0.910156 20.480469 0.9375 C 20.480469 0.96875 20.488281 1.023438 20.535156 1.070312 C 20.683594 1.214844 20.683594 1.453125 20.539062 1.601562 C 20.464844 1.675781 20.367188 1.710938 20.273438 1.710938 Z M 20.273438 1.710938 "/>
<path style=" stroke:none;fill-rule:nonzero;fill:rgb(0%,0%,0%);fill-opacity:1;" d="M 23.054688 4.261719 C 22.816406 4.261719 22.574219 4.167969 22.394531 3.988281 C 22.246094 3.839844 22.246094 3.605469 22.390625 3.457031 C 22.539062 3.308594 22.777344 3.3125 22.921875 3.457031 C 22.996094 3.53125 23.113281 3.53125 23.1875 3.457031 C 23.261719 3.382812 23.261719 3.265625 23.1875 3.191406 C 23.042969 3.042969 23.042969 2.808594 23.1875 2.660156 C 23.335938 2.515625 23.570312 2.515625 23.71875 2.660156 C 24.082031 3.027344 24.082031 3.621094 23.71875 3.988281 C 23.535156 4.167969 23.296875 4.261719 23.054688 4.261719 Z M 23.054688 4.261719 "/>
<path style=" stroke:none;fill-rule:nonzero;fill:rgb(0%,0%,0%);fill-opacity:1;" d="M 17.734375 9.539062 C 17.640625 9.539062 17.542969 9.503906 17.46875 9.429688 L 14.558594 6.519531 C 14.410156 6.371094 14.410156 6.132812 14.558594 5.988281 C 14.703125 5.839844 14.941406 5.839844 15.089844 5.988281 L 18 8.902344 C 18.148438 9.046875 18.148438 9.285156 18 9.429688 C 17.925781 9.503906 17.832031 9.539062 17.734375 9.539062 Z M 17.734375 9.539062 "/>
<path style=" stroke:none;fill-rule:nonzero;fill:rgb(0%,0%,0%);fill-opacity:1;" d="M 18.535156 8.75 C 18.4375 8.75 18.34375 8.714844 18.269531 8.640625 L 15.351562 5.722656 C 15.207031 5.578125 15.207031 5.339844 15.351562 5.195312 C 15.5 5.046875 15.738281 5.046875 15.882812 5.195312 L 18.800781 8.109375 C 18.945312 8.257812 18.945312 8.496094 18.800781 8.640625 C 18.726562 8.714844 18.632812 8.75 18.535156 8.75 Z M 18.535156 8.75 "/>
<path style=" stroke:none;fill-rule:nonzero;fill:rgb(0%,0%,0%);fill-opacity:1;" d="M 12.917969 14.09375 C 12.824219 14.09375 12.726562 14.054688 12.652344 13.980469 L 10.007812 11.335938 C 9.859375 11.1875 9.859375 10.953125 10.007812 10.804688 C 10.152344 10.660156 10.390625 10.660156 10.539062 10.804688 L 13.183594 13.453125 C 13.332031 13.597656 13.332031 13.835938 13.183594 13.980469 C 13.109375 14.054688 13.015625 14.09375 12.917969 14.09375 Z M 12.917969 14.09375 "/>
<path style=" stroke:none;fill-rule:nonzero;fill:rgb(0%,0%,0%);fill-opacity:1;" d="M 13.714844 13.296875 C 13.617188 13.296875 13.523438 13.261719 13.449219 13.1875 L 10.800781 10.539062 C 10.65625 10.394531 10.65625 10.15625 10.800781 10.007812 C 10.949219 9.863281 11.1875 9.863281 11.332031 10.007812 L 13.980469 12.65625 C 14.125 12.804688 14.125 13.039062 13.980469 13.1875 C 13.90625 13.261719 13.808594 13.296875 13.714844 13.296875 Z M 13.714844 13.296875 "/>
<path style=" stroke:none;fill-rule:nonzero;fill:rgb(0%,0%,0%);fill-opacity:1;" d="M 11.863281 11.445312 C 11.765625 11.445312 11.671875 11.40625 11.597656 11.335938 C 11.453125 11.1875 11.453125 10.953125 11.597656 10.804688 L 15.484375 6.917969 C 15.632812 6.769531 15.871094 6.769531 16.015625 6.917969 C 16.164062 7.0625 16.164062 7.300781 16.015625 7.445312 L 12.128906 11.335938 C 12.054688 11.410156 11.960938 11.445312 11.863281 11.445312 Z M 11.863281 11.445312 "/>
<path style=" stroke:none;fill-rule:nonzero;fill:rgb(0%,0%,0%);fill-opacity:1;" d="M 12.921875 12.503906 C 12.828125 12.503906 12.730469 12.46875 12.660156 12.394531 C 12.511719 12.25 12.511719 12.011719 12.660156 11.863281 L 16.546875 7.976562 C 16.695312 7.832031 16.929688 7.832031 17.078125 7.976562 C 17.222656 8.125 17.222656 8.359375 17.078125 8.507812 L 13.1875 12.394531 C 13.117188 12.46875 13.019531 12.503906 12.921875 12.503906 Z M 12.921875 12.503906 "/>
<path style=" stroke:none;fill-rule:nonzero;fill:rgb(0%,0%,0%);fill-opacity:1;" d="M 16.546875 6.761719 C 16.449219 6.761719 16.355469 6.726562 16.28125 6.652344 C 16.132812 6.503906 16.132812 6.269531 16.28125 6.121094 L 20.671875 1.730469 C 20.820312 1.585938 21.054688 1.585938 21.203125 1.730469 C 21.347656 1.878906 21.347656 2.113281 21.203125 2.261719 L 16.8125 6.652344 C 16.738281 6.726562 16.640625 6.761719 16.546875 6.761719 Z M 16.546875 6.761719 "/>
<path style=" stroke:none;fill-rule:nonzero;fill:rgb(0%,0%,0%);fill-opacity:1;" d="M 17.605469 7.820312 C 17.511719 7.820312 17.414062 7.785156 17.339844 7.710938 C 17.195312 7.566406 17.195312 7.328125 17.339844 7.183594 L 21.734375 2.792969 C 21.878906 2.644531 22.117188 2.644531 22.261719 2.792969 C 22.410156 2.9375 22.410156 3.175781 22.261719 3.320312 L 17.871094 7.710938 C 17.796875 7.785156 17.703125 7.820312 17.605469 7.820312 Z M 17.605469 7.820312 "/>
<path style=" stroke:none;fill-rule:nonzero;fill:rgb(0%,0%,0%);fill-opacity:1;" d="M 22.65625 4.097656 C 22.5625 4.097656 22.464844 4.058594 22.394531 3.988281 L 20.007812 1.601562 C 19.859375 1.453125 19.859375 1.21875 20.007812 1.070312 C 20.152344 0.925781 20.390625 0.925781 20.539062 1.070312 L 22.921875 3.457031 C 23.070312 3.601562 23.070312 3.839844 22.921875 3.988281 C 22.851562 4.058594 22.753906 4.097656 22.65625 4.097656 Z M 22.65625 4.097656 "/>
<path style=" stroke:none;fill-rule:nonzero;fill:rgb(0%,0%,0%);fill-opacity:1;" d="M 23.453125 3.300781 C 23.355469 3.300781 23.261719 3.265625 23.1875 3.191406 L 20.800781 0.804688 C 20.65625 0.660156 20.65625 0.421875 20.800781 0.273438 C 20.949219 0.128906 21.1875 0.128906 21.332031 0.273438 L 23.71875 2.660156 C 23.863281 2.808594 23.863281 3.042969 23.71875 3.191406 C 23.644531 3.265625 23.550781 3.300781 23.453125 3.300781 Z M 23.453125 3.300781 "/>
<path style=" stroke:none;fill-rule:nonzero;fill:rgb(0%,0%,0%);fill-opacity:1;" d="M 18.75 23.988281 C 15.855469 23.988281 13.5 21.632812 13.5 18.738281 C 13.5 15.84375 15.855469 13.488281 18.75 13.488281 C 21.644531 13.488281 24 15.84375 24 18.738281 C 24 21.632812 21.644531 23.988281 18.75 23.988281 Z M 18.75 14.238281 C 16.269531 14.238281 14.25 16.253906 14.25 18.738281 C 14.25 21.21875 16.269531 23.238281 18.75 23.238281 C 21.230469 23.238281 23.25 21.21875 23.25 18.738281 C 23.25 16.253906 21.230469 14.238281 18.75 14.238281 Z M 18.75 14.238281 "/>
<path style=" stroke:none;fill-rule:nonzero;fill:rgb(0%,0%,0%);fill-opacity:1;" d="M 20.25 20.421875 C 20.148438 20.421875 20.042969 20.378906 19.972656 20.296875 C 19.832031 20.140625 19.847656 19.902344 20 19.765625 C 20.398438 19.410156 20.625 18.902344 20.625 18.367188 C 20.625 17.335938 19.785156 16.492188 18.75 16.492188 C 17.714844 16.492188 16.875 17.335938 16.875 18.367188 C 16.875 18.902344 17.101562 19.410156 17.5 19.765625 C 17.652344 19.902344 17.667969 20.140625 17.527344 20.292969 C 17.390625 20.449219 17.152344 20.460938 17 20.324219 C 16.445312 19.828125 16.125 19.113281 16.125 18.367188 C 16.125 16.921875 17.304688 15.742188 18.75 15.742188 C 20.195312 15.742188 21.375 16.921875 21.375 18.367188 C 21.375 19.113281 21.054688 19.828125 20.5 20.324219 C 20.429688 20.390625 20.339844 20.421875 20.25 20.421875 Z M 20.25 20.421875 "/>
<path style=" stroke:none;fill-rule:nonzero;fill:rgb(0%,0%,0%);fill-opacity:1;" d="M 20.25 21.367188 C 20.042969 21.367188 19.875 21.199219 19.875 20.992188 L 19.875 19.863281 C 19.875 19.65625 20.042969 19.488281 20.25 19.488281 C 20.457031 19.488281 20.625 19.65625 20.625 19.863281 L 20.625 20.992188 C 20.625 21.199219 20.457031 21.367188 20.25 21.367188 Z M 20.25 21.367188 "/>
<path style=" stroke:none;fill-rule:nonzero;fill:rgb(0%,0%,0%);fill-opacity:1;" d="M 20.25 21.367188 L 17.25 21.367188 C 17.042969 21.367188 16.875 21.199219 16.875 20.992188 C 16.875 20.785156 17.042969 20.617188 17.25 20.617188 L 20.25 20.617188 C 20.457031 20.617188 20.625 20.785156 20.625 20.992188 C 20.625 21.199219 20.457031 21.367188 20.25 21.367188 Z M 20.25 21.367188 "/>
<path style=" stroke:none;fill-rule:nonzero;fill:rgb(0%,0%,0%);fill-opacity:1;" d="M 17.25 21.367188 C 17.042969 21.367188 16.875 21.199219 16.875 20.992188 L 16.875 19.863281 C 16.875 19.65625 17.042969 19.488281 17.25 19.488281 C 17.457031 19.488281 17.625 19.65625 17.625 19.863281 L 17.625 20.992188 C 17.625 21.199219 17.457031 21.367188 17.25 21.367188 Z M 17.25 21.367188 "/>
<path style=" stroke:none;fill-rule:nonzero;fill:rgb(0%,0%,0%);fill-opacity:1;" d="M 18.011719 18.742188 C 17.804688 18.742188 17.632812 18.574219 17.632812 18.367188 C 17.632812 18.160156 17.800781 17.992188 18.007812 17.992188 L 18.011719 17.992188 C 18.21875 17.992188 18.386719 18.160156 18.386719 18.367188 C 18.386719 18.574219 18.21875 18.742188 18.011719 18.742188 Z M 18.011719 18.742188 "/>
<path style=" stroke:none;fill-rule:nonzero;fill:rgb(0%,0%,0%);fill-opacity:1;" d="M 19.511719 18.742188 C 19.304688 18.742188 19.136719 18.574219 19.136719 18.367188 C 19.136719 18.160156 19.300781 17.992188 19.507812 17.992188 L 19.511719 17.992188 C 19.71875 17.992188 19.886719 18.160156 19.886719 18.367188 C 19.886719 18.574219 19.71875 18.742188 19.511719 18.742188 Z M 19.511719 18.742188 "/>
<path style=" stroke:none;fill-rule:nonzero;fill:rgb(0%,0%,0%);fill-opacity:1;" d="M 18.75 21.367188 C 18.542969 21.367188 18.375 21.199219 18.375 20.992188 L 18.375 20.617188 C 18.375 20.410156 18.542969 20.242188 18.75 20.242188 C 18.957031 20.242188 19.125 20.410156 19.125 20.617188 L 19.125 20.992188 C 19.125 21.199219 18.957031 21.367188 18.75 21.367188 Z M 18.75 21.367188 "/>
</g>
</svg>
