<?xml version="1.0" encoding="UTF-8"?>
<svg xmlns="http://www.w3.org/2000/svg" xmlns:xlink="http://www.w3.org/1999/xlink" width="24pt" height="24pt" viewBox="0 0 24 24" version="1.1">
<g id="surface1">
<path style=" stroke:none;fill-rule:nonzero;fill:rgb(0%,0%,0%);fill-opacity:1;" d="M 21.65625 19.3125 L 18.511719 19.3125 L 20.171875 12.867188 C 20.171875 12.863281 20.175781 12.859375 20.175781 12.855469 C 20.964844 9.410156 20.519531 6.554688 18.84375 4.359375 C 17.566406 2.679688 15.53125 1.394531 12.964844 0.640625 C 11.042969 0.0742188 9.511719 0.00390625 9.449219 0 C 9.4375 0 9.425781 0 9.417969 0 C 9.375 0 8.34375 0.0273438 7.296875 0.230469 C 5.6875 0.542969 4.875 1.128906 4.875 1.96875 L 4.875 19.3125 L 2.34375 19.3125 C 2.085938 19.3125 1.875 19.523438 1.875 19.78125 L 1.875 23.53125 C 1.875 23.789062 2.085938 24 2.34375 24 L 21.65625 24 C 21.914062 24 22.125 23.789062 22.125 23.53125 L 22.125 19.78125 C 22.125 19.523438 21.914062 19.3125 21.65625 19.3125 Z M 5.8125 1.96875 C 5.8125 1.429688 7.714844 0.980469 9.421875 0.9375 C 9.578125 0.945312 11.003906 1.039062 12.726562 1.546875 C 14.375 2.03125 16.644531 3.015625 18.101562 4.929688 C 19.59375 6.890625 19.984375 9.484375 19.261719 12.636719 L 17.542969 19.3125 L 5.8125 19.3125 Z M 21.1875 23.0625 L 2.8125 23.0625 L 2.8125 20.25 L 21.1875 20.25 Z M 21.1875 23.0625 "/>
<path style=" stroke:none;fill-rule:nonzero;fill:rgb(0%,0%,0%);fill-opacity:1;" d="M 14.8125 17.4375 L 9.1875 17.4375 C 8.929688 17.4375 8.71875 17.648438 8.71875 17.90625 C 8.71875 18.164062 8.929688 18.375 9.1875 18.375 L 14.8125 18.375 C 15.070312 18.375 15.28125 18.164062 15.28125 17.90625 C 15.28125 17.648438 15.070312 17.4375 14.8125 17.4375 Z M 14.8125 17.4375 "/>
<path style=" stroke:none;fill-rule:nonzero;fill:rgb(0%,0%,0%);fill-opacity:1;" d="M 9.1875 12.75 L 14.8125 12.75 C 15.070312 12.75 15.28125 12.539062 15.28125 12.28125 C 15.28125 12.023438 15.070312 11.8125 14.8125 11.8125 L 9.1875 11.8125 C 8.929688 11.8125 8.71875 12.023438 8.71875 12.28125 C 8.71875 12.539062 8.929688 12.75 9.1875 12.75 Z M 9.1875 12.75 "/>
<path style=" stroke:none;fill-rule:nonzero;fill:rgb(0%,0%,0%);fill-opacity:1;" d="M 11.53125 16.03125 C 11.53125 16.289062 11.742188 16.5 12 16.5 C 12.257812 16.5 12.46875 16.289062 12.46875 16.03125 C 12.46875 15.773438 12.257812 15.5625 12 15.5625 C 11.742188 15.5625 11.53125 15.773438 11.53125 16.03125 Z M 11.53125 16.03125 "/>
<path style=" stroke:none;fill-rule:nonzero;fill:rgb(0%,0%,0%);fill-opacity:1;" d="M 16.6875 15.5625 L 13.875 15.5625 C 13.617188 15.5625 13.40625 15.773438 13.40625 16.03125 C 13.40625 16.289062 13.617188 16.5 13.875 16.5 L 16.6875 16.5 C 16.945312 16.5 17.15625 16.289062 17.15625 16.03125 C 17.15625 15.773438 16.945312 15.5625 16.6875 15.5625 Z M 16.6875 15.5625 "/>
<path style=" stroke:none;fill-rule:nonzero;fill:rgb(0%,0%,0%);fill-opacity:1;" d="M 10.59375 16.03125 C 10.59375 15.773438 10.382812 15.5625 10.125 15.5625 L 7.3125 15.5625 C 7.054688 15.5625 6.84375 15.773438 6.84375 16.03125 C 6.84375 16.289062 7.054688 16.5 7.3125 16.5 L 10.125 16.5 C 10.382812 16.5 10.59375 16.289062 10.59375 16.03125 Z M 10.59375 16.03125 "/>
<path style=" stroke:none;fill-rule:nonzero;fill:rgb(0%,0%,0%);fill-opacity:1;" d="M 16.6875 13.6875 L 12.9375 13.6875 C 12.679688 13.6875 12.46875 13.898438 12.46875 14.15625 C 12.46875 14.414062 12.679688 14.625 12.9375 14.625 L 16.6875 14.625 C 16.945312 14.625 17.15625 14.414062 17.15625 14.15625 C 17.15625 13.898438 16.945312 13.6875 16.6875 13.6875 Z M 16.6875 13.6875 "/>
<path style=" stroke:none;fill-rule:nonzero;fill:rgb(0%,0%,0%);fill-opacity:1;" d="M 7.3125 14.625 L 11.0625 14.625 C 11.320312 14.625 11.53125 14.414062 11.53125 14.15625 C 11.53125 13.898438 11.320312 13.6875 11.0625 13.6875 L 7.3125 13.6875 C 7.054688 13.6875 6.84375 13.898438 6.84375 14.15625 C 6.84375 14.414062 7.054688 14.625 7.3125 14.625 Z M 7.3125 14.625 "/>
<path style=" stroke:none;fill-rule:nonzero;fill:rgb(0%,0%,0%);fill-opacity:1;" d="M 12 10.78125 C 13.679688 10.78125 15.046875 9.203125 15.046875 7.265625 C 15.046875 5.328125 13.679688 3.75 12 3.75 C 10.320312 3.75 8.953125 5.328125 8.953125 7.265625 C 8.953125 9.203125 10.320312 10.78125 12 10.78125 Z M 12 4.6875 C 13.164062 4.6875 14.109375 5.84375 14.109375 7.265625 C 14.109375 8.6875 13.164062 9.84375 12 9.84375 C 10.835938 9.84375 9.890625 8.6875 9.890625 7.265625 C 9.890625 5.84375 10.835938 4.6875 12 4.6875 Z M 12 4.6875 "/>
</g>
</svg>
