<?xml version="1.0" encoding="UTF-8"?>
<svg xmlns="http://www.w3.org/2000/svg" xmlns:xlink="http://www.w3.org/1999/xlink" width="24pt" height="24pt" viewBox="0 0 24 24" version="1.1">
<g id="surface1">
<path style=" stroke:none;fill-rule:nonzero;fill:rgb(0%,0%,0%);fill-opacity:1;" d="M 24 0.351562 C 24 0.15625 23.84375 0 23.648438 0 C 23.597656 0 5.207031 0 0.351562 0 C 0.15625 0 0 0.15625 0 0.351562 L 0 1.734375 C 0 1.734375 0 1.738281 0 1.738281 C 0 1.738281 0 1.738281 0 1.742188 C 0 1.742188 0 1.746094 0 1.746094 C 0 1.75 0 1.75 0 1.75 C 0 1.753906 0 1.753906 0 1.757812 C 0 1.765625 0.00390625 1.773438 0.00390625 1.78125 L 0.464844 5.550781 C 0.488281 5.726562 0.636719 5.859375 0.8125 5.859375 L 3.824219 5.859375 C 3.496094 6.179688 3.292969 6.625 3.292969 7.117188 L 3.292969 7.484375 C 3.292969 7.679688 3.453125 7.835938 3.644531 7.835938 C 3.839844 7.835938 3.996094 7.679688 3.996094 7.484375 L 3.996094 7.117188 C 3.996094 6.816406 4.121094 6.546875 4.320312 6.355469 C 4.324219 6.507812 4.363281 6.664062 4.433594 6.808594 C 4.699219 7.328125 5.332031 7.535156 5.847656 7.273438 L 6.105469 7.148438 L 6.105469 13.328125 L 5.320312 13.328125 C 5.320312 13.328125 5.320312 13.328125 5.316406 13.328125 L 4.761719 13.328125 C 4.761719 13.328125 4.757812 13.328125 4.753906 13.328125 L 3.996094 13.328125 L 3.996094 8.984375 C 3.996094 8.789062 3.839844 8.632812 3.644531 8.632812 C 3.453125 8.632812 3.292969 8.789062 3.292969 8.984375 L 3.292969 13.585938 C 3.292969 13.757812 3.394531 13.910156 3.542969 13.984375 L 3.351562 17.484375 L 0.265625 20.988281 C 0.0195312 21.265625 -0.0625 21.65625 0.0507812 22.007812 L 0.457031 23.265625 C 0.636719 23.828125 1.230469 24.125 1.78125 23.949219 C 2.335938 23.769531 2.640625 23.175781 2.464844 22.621094 L 2.242188 21.933594 L 5.175781 18.605469 C 5.332031 18.425781 5.425781 18.199219 5.4375 17.964844 L 5.570312 15.5625 L 7.234375 18.117188 L 7.128906 22.921875 C 7.117188 23.507812 7.585938 24 8.1875 24 L 9.40625 23.996094 C 9.988281 23.996094 10.460938 23.523438 10.457031 22.9375 C 10.457031 22.359375 9.984375 21.886719 9.402344 21.886719 L 9.261719 21.886719 L 9.351562 17.835938 C 9.355469 17.621094 9.296875 17.414062 9.179688 17.238281 L 6.808594 13.601562 C 6.808594 13.597656 6.808594 13.589844 6.808594 13.585938 L 6.808594 7.117188 C 6.808594 7.015625 6.800781 6.917969 6.785156 6.824219 L 8.796875 5.859375 L 13.515625 5.859375 C 13.710938 5.859375 13.867188 5.703125 13.867188 5.507812 C 13.867188 5.3125 13.710938 5.15625 13.515625 5.15625 L 9.910156 5.15625 C 9.945312 5.101562 9.976562 5.042969 10 4.984375 L 11.382812 2.085938 L 21.277344 2.085938 L 20.449219 3.808594 L 18.8125 4.589844 C 18.8125 4.570312 18.8125 4.554688 18.8125 4.539062 C 18.8125 4.441406 18.804688 4.347656 18.789062 4.253906 C 18.871094 4.203125 18.929688 4.121094 18.949219 4.023438 L 19.199219 2.777344 C 19.222656 2.671875 19.195312 2.566406 19.128906 2.484375 C 19.0625 2.402344 18.960938 2.355469 18.855469 2.355469 L 15.789062 2.355469 C 15.6875 2.355469 15.589844 2.402344 15.523438 2.480469 C 15.453125 2.558594 15.425781 2.660156 15.441406 2.761719 L 15.640625 4.007812 C 15.65625 4.109375 15.714844 4.195312 15.792969 4.246094 C 15.777344 4.34375 15.765625 4.441406 15.765625 4.539062 C 15.765625 4.753906 15.8125 4.964844 15.898438 5.15625 L 15 5.15625 C 14.804688 5.15625 14.648438 5.3125 14.648438 5.507812 C 14.648438 5.703125 14.804688 5.859375 15 5.859375 L 16.0625 5.859375 C 15.734375 6.179688 15.53125 6.625 15.53125 7.117188 L 15.53125 13.585938 C 15.53125 13.757812 15.632812 13.910156 15.78125 13.984375 L 15.589844 17.484375 L 12.503906 20.988281 C 12.257812 21.265625 12.175781 21.65625 12.289062 22.007812 L 12.695312 23.265625 C 12.875 23.828125 13.46875 24.125 14.019531 23.949219 C 14.574219 23.769531 14.878906 23.175781 14.703125 22.621094 L 14.480469 21.933594 L 17.414062 18.605469 C 17.570312 18.425781 17.664062 18.199219 17.675781 17.964844 L 17.808594 15.5625 L 19.476562 18.117188 L 19.367188 22.921875 C 19.355469 23.503906 19.820312 24 20.425781 24 L 21.644531 23.996094 C 22.226562 23.996094 22.699219 23.519531 22.695312 22.9375 C 22.695312 22.355469 22.222656 21.886719 21.640625 21.886719 L 21.5 21.886719 L 21.589844 17.835938 C 21.59375 17.625 21.535156 17.417969 21.417969 17.238281 L 20.773438 16.246094 C 20.667969 16.085938 20.449219 16.039062 20.285156 16.144531 C 20.125 16.25 20.078125 16.46875 20.183594 16.632812 L 20.832031 17.621094 C 20.871094 17.683594 20.890625 17.75 20.886719 17.824219 L 20.789062 22.230469 C 20.785156 22.429688 20.945312 22.589844 21.140625 22.589844 L 21.640625 22.589844 C 21.835938 22.589844 21.992188 22.746094 21.992188 22.941406 C 21.992188 23.132812 21.835938 23.292969 21.640625 23.292969 L 20.425781 23.296875 C 20.226562 23.296875 20.066406 23.136719 20.070312 22.9375 L 20.179688 18.023438 C 20.183594 17.953125 20.160156 17.882812 20.121094 17.824219 L 17.871094 14.375 L 17.890625 14.03125 L 18.488281 14.03125 L 19.359375 15.367188 C 19.425781 15.46875 19.539062 15.527344 19.652344 15.527344 C 19.71875 15.527344 19.785156 15.507812 19.84375 15.46875 C 20.007812 15.363281 20.054688 15.144531 19.949219 14.984375 L 19.046875 13.601562 C 19.046875 13.597656 19.046875 13.589844 19.046875 13.585938 L 19.046875 7.117188 C 19.046875 7.015625 19.039062 6.917969 19.023438 6.824219 L 21.035156 5.859375 L 23.1875 5.859375 C 23.363281 5.859375 23.511719 5.726562 23.535156 5.550781 L 23.996094 1.777344 C 24 1.757812 24 1.742188 24 1.722656 C 24 0.859375 24 0.773438 24 0.351562 Z M 4.738281 17.925781 C 4.730469 18.003906 4.703125 18.082031 4.648438 18.140625 L 1.582031 21.617188 C 1.5 21.710938 1.472656 21.839844 1.511719 21.957031 L 1.792969 22.839844 C 1.855469 23.023438 1.75 23.21875 1.566406 23.28125 C 1.382812 23.339844 1.183594 23.238281 1.125 23.050781 L 0.71875 21.792969 C 0.683594 21.675781 0.710938 21.546875 0.792969 21.453125 L 3.960938 17.859375 C 4.011719 17.796875 4.042969 17.722656 4.046875 17.644531 L 4.242188 14.03125 L 4.570312 14.03125 L 4.917969 14.566406 Z M 8.648438 17.824219 L 8.550781 22.230469 C 8.546875 22.429688 8.707031 22.589844 8.902344 22.589844 L 9.402344 22.589844 C 9.597656 22.589844 9.753906 22.746094 9.753906 22.941406 C 9.753906 23.132812 9.597656 23.292969 9.402344 23.292969 L 8.1875 23.296875 C 7.988281 23.296875 7.828125 23.136719 7.832031 22.9375 L 7.941406 18.023438 C 7.941406 17.953125 7.921875 17.882812 7.882812 17.824219 L 5.632812 14.375 L 5.652344 14.03125 L 6.246094 14.03125 L 8.59375 17.625 C 8.632812 17.683594 8.652344 17.75 8.648438 17.824219 Z M 0.703125 0.703125 L 9.707031 0.703125 L 9.378906 1.382812 L 0.703125 1.382812 Z M 0.75 2.085938 L 9.039062 2.085938 L 8.210938 3.808594 L 6.574219 4.589844 C 6.574219 4.570312 6.574219 4.554688 6.574219 4.539062 C 6.574219 4.441406 6.566406 4.347656 6.546875 4.253906 C 6.632812 4.203125 6.691406 4.121094 6.710938 4.023438 L 6.960938 2.777344 C 7.007812 2.558594 6.839844 2.355469 6.617188 2.355469 L 3.550781 2.355469 C 3.335938 2.355469 3.167969 2.546875 3.203125 2.761719 L 3.402344 4.007812 C 3.417969 4.109375 3.476562 4.195312 3.554688 4.246094 C 3.539062 4.34375 3.527344 4.441406 3.527344 4.539062 C 3.527344 4.757812 3.574219 4.96875 3.660156 5.15625 L 1.125 5.15625 Z M 6.078125 3.601562 C 6.070312 3.601562 6.0625 3.601562 6.054688 3.601562 L 4.046875 3.601562 L 3.960938 3.058594 L 6.1875 3.058594 Z M 4.972656 5.355469 C 4.558594 5.316406 4.230469 4.964844 4.230469 4.539062 C 4.230469 4.457031 4.242188 4.378906 4.265625 4.304688 L 5.839844 4.304688 C 5.859375 4.378906 5.871094 4.457031 5.871094 4.539062 C 5.871094 4.699219 5.824219 4.855469 5.738281 4.988281 Z M 9.363281 4.6875 C 9.359375 4.695312 9.355469 4.703125 9.351562 4.710938 C 9.320312 4.789062 9.265625 4.851562 9.191406 4.890625 C 8.457031 5.242188 6.34375 6.257812 5.542969 6.640625 C 5.539062 6.640625 5.535156 6.644531 5.535156 6.644531 C 5.363281 6.730469 5.152344 6.664062 5.0625 6.492188 C 4.976562 6.324219 5.039062 6.117188 5.203125 6.023438 C 5.207031 6.023438 5.207031 6.023438 5.210938 6.019531 C 9.292969 4.070312 8.527344 4.433594 8.625 4.390625 C 8.695312 4.355469 8.753906 4.296875 8.789062 4.222656 C 9.066406 3.648438 9.933594 1.851562 10.371094 0.945312 C 10.375 0.9375 10.378906 0.929688 10.378906 0.925781 C 10.453125 0.746094 10.660156 0.65625 10.835938 0.726562 C 11.015625 0.800781 11.101562 1 11.035156 1.175781 C 10.894531 1.476562 9.574219 4.246094 9.363281 4.6875 Z M 11.710938 1.382812 C 11.78125 1.160156 11.78125 0.921875 11.703125 0.703125 L 21.945312 0.703125 L 21.617188 1.382812 Z M 20.863281 4.390625 C 20.933594 4.355469 20.992188 4.296875 21.027344 4.222656 C 22.484375 1.207031 22.613281 0.941406 22.621094 0.925781 C 22.691406 0.742188 22.894531 0.65625 23.078125 0.730469 C 23.253906 0.800781 23.339844 1 23.273438 1.175781 C 23.140625 1.457031 21.808594 4.25 21.601562 4.6875 C 21.597656 4.695312 21.59375 4.703125 21.59375 4.710938 C 21.5625 4.789062 21.503906 4.851562 21.429688 4.890625 C 16.101562 7.445312 18.621094 6.238281 17.78125 6.640625 C 17.777344 6.640625 17.777344 6.644531 17.773438 6.644531 C 17.601562 6.730469 17.386719 6.664062 17.300781 6.492188 C 17.214844 6.324219 17.277344 6.117188 17.441406 6.023438 C 17.445312 6.023438 17.449219 6.019531 17.457031 6.015625 Z M 17.210938 5.355469 C 17.074219 5.339844 16.945312 5.296875 16.832031 5.21875 C 16.832031 5.21875 16.828125 5.214844 16.828125 5.214844 C 16.601562 5.0625 16.46875 4.808594 16.46875 4.539062 C 16.46875 4.457031 16.480469 4.378906 16.503906 4.304688 L 18.078125 4.304688 C 18.097656 4.378906 18.109375 4.457031 18.109375 4.539062 C 18.109375 4.703125 18.0625 4.855469 17.976562 4.988281 Z M 18.425781 3.058594 L 18.316406 3.601562 C 18.308594 3.601562 18.300781 3.601562 18.292969 3.601562 L 16.289062 3.601562 C 16.289062 3.601562 16.285156 3.601562 16.285156 3.601562 L 16.199219 3.058594 Z M 17.164062 14.441406 C 17.164062 14.449219 17.164062 14.453125 17.164062 14.460938 L 16.976562 17.925781 C 16.972656 18.003906 16.941406 18.082031 16.886719 18.140625 L 13.820312 21.617188 C 13.738281 21.710938 13.710938 21.839844 13.75 21.957031 L 14.03125 22.835938 C 14.089844 23.023438 13.988281 23.21875 13.804688 23.28125 C 13.621094 23.339844 13.421875 23.238281 13.363281 23.050781 L 12.957031 21.792969 C 12.921875 21.675781 12.949219 21.546875 13.03125 21.453125 L 16.199219 17.859375 C 16.25 17.796875 16.28125 17.722656 16.285156 17.644531 L 16.480469 14.03125 L 17.1875 14.03125 Z M 18.34375 13.328125 L 17.558594 13.328125 C 17.558594 13.328125 17.558594 13.328125 17.554688 13.328125 L 16.234375 13.328125 L 16.234375 7.117188 C 16.234375 6.820312 16.359375 6.550781 16.558594 6.355469 C 16.5625 6.511719 16.601562 6.664062 16.671875 6.808594 C 16.859375 7.175781 17.230469 7.386719 17.617188 7.386719 C 17.773438 7.386719 17.9375 7.347656 18.085938 7.273438 L 18.34375 7.148438 Z M 22.148438 5.15625 C 22.183594 5.101562 22.214844 5.042969 22.238281 4.984375 L 23.125 3.128906 L 22.875 5.15625 Z M 22.148438 5.15625 "/>
</g>
</svg>
