<?xml version="1.0" encoding="UTF-8"?>
<svg xmlns="http://www.w3.org/2000/svg" xmlns:xlink="http://www.w3.org/1999/xlink" width="24pt" height="24pt" viewBox="0 0 24 24" version="1.1">
<g id="surface1">
<path style=" stroke:none;fill-rule:nonzero;fill:rgb(0%,0%,0%);fill-opacity:1;" d="M 19.601562 6.203125 C 21.148438 6.203125 22.398438 4.949219 22.398438 3.402344 C 22.398438 1.855469 21.148438 0.601562 19.601562 0.601562 C 18.054688 0.601562 16.800781 1.855469 16.800781 3.402344 C 16.800781 4.945312 18.054688 6.199219 19.601562 6.203125 Z M 19.601562 1.402344 C 20.703125 1.402344 21.601562 2.296875 21.601562 3.402344 C 21.601562 4.507812 20.703125 5.402344 19.601562 5.402344 C 18.496094 5.402344 17.601562 4.507812 17.601562 3.402344 C 17.601562 2.296875 18.496094 1.402344 19.601562 1.402344 Z M 19.601562 1.402344 "/>
<path style=" stroke:none;fill-rule:nonzero;fill:rgb(0%,0%,0%);fill-opacity:1;" d="M 3.671875 4.601562 L 9.527344 4.601562 C 9.691406 4.601562 9.839844 4.5 9.902344 4.347656 C 9.96875 4.171875 10 3.988281 10 3.800781 C 10 3.058594 9.488281 2.414062 8.769531 2.246094 C 8.597656 1.300781 7.78125 0.609375 6.820312 0.601562 C 5.863281 0.589844 5.03125 1.261719 4.839844 2.203125 L 4.800781 2.203125 C 3.917969 2.203125 3.199219 2.917969 3.199219 3.800781 C 3.199219 3.988281 3.234375 4.171875 3.296875 4.347656 C 3.359375 4.5 3.507812 4.601562 3.671875 4.601562 Z M 5.066406 3.050781 C 5.191406 3.097656 5.328125 3.082031 5.4375 3.007812 C 5.542969 2.933594 5.609375 2.808594 5.609375 2.675781 C 5.609375 2.652344 5.605469 2.625 5.601562 2.601562 C 5.601562 1.9375 6.136719 1.402344 6.800781 1.402344 C 7.460938 1.402344 8 1.9375 8 2.601562 C 8 2.824219 8.179688 3 8.398438 3 C 8.84375 3 9.199219 3.359375 9.199219 3.800781 L 4 3.800781 C 4 3.542969 4.125 3.296875 4.339844 3.148438 C 4.550781 3 4.824219 2.964844 5.066406 3.050781 Z M 5.066406 3.050781 "/>
<path style=" stroke:none;fill-rule:nonzero;fill:rgb(0%,0%,0%);fill-opacity:1;" d="M 8.214844 5.929688 C 7.734375 5.972656 7.300781 6.230469 7.03125 6.628906 C 6.515625 6.40625 5.917969 6.46875 5.460938 6.796875 C 5 7.128906 4.75 7.675781 4.800781 8.234375 L 5.601562 8.167969 C 5.570312 7.839844 5.746094 7.527344 6.039062 7.378906 C 6.335938 7.234375 6.6875 7.285156 6.933594 7.507812 C 7.035156 7.601562 7.179688 7.632812 7.3125 7.59375 C 7.445312 7.554688 7.550781 7.449219 7.585938 7.316406 C 7.6875 6.941406 8.042969 6.695312 8.425781 6.730469 C 8.8125 6.761719 9.117188 7.070312 9.152344 7.453125 L 9.949219 7.382812 C 9.871094 6.503906 9.09375 5.851562 8.214844 5.929688 Z M 8.214844 5.929688 "/>
<path style=" stroke:none;fill-rule:nonzero;fill:rgb(0%,0%,0%);fill-opacity:1;" d="M 15.199219 8.203125 C 15.28125 8.203125 15.359375 8.226562 15.421875 8.269531 C 15.527344 8.339844 15.65625 8.355469 15.773438 8.316406 C 15.890625 8.277344 15.984375 8.1875 16.023438 8.070312 C 16.089844 7.886719 16.277344 7.777344 16.46875 7.8125 C 16.65625 7.84375 16.796875 8.007812 16.800781 8.203125 L 17.601562 8.203125 C 17.601562 7.695312 17.285156 7.242188 16.808594 7.070312 C 16.335938 6.898438 15.800781 7.046875 15.480469 7.433594 C 15.121094 7.347656 14.746094 7.429688 14.457031 7.660156 C 14.167969 7.886719 14 8.234375 14 8.601562 L 14.800781 8.601562 C 14.800781 8.378906 14.980469 8.203125 15.199219 8.203125 Z M 15.199219 8.203125 "/>
<path style=" stroke:none;fill-rule:nonzero;fill:rgb(0%,0%,0%);fill-opacity:1;" d="M 21.632812 22.601562 L 23.027344 18.523438 C 23.0625 18.417969 23.054688 18.300781 23 18.203125 C 22.949219 18.105469 22.859375 18.035156 22.75 18.003906 L 21.207031 17.589844 L 21.726562 15.65625 L 22.5 15.867188 L 22.707031 15.09375 L 21.933594 14.886719 L 22.140625 14.113281 L 21.367188 13.90625 L 21.160156 14.679688 L 20.386719 14.472656 L 20.179688 15.246094 L 20.953125 15.453125 L 20.433594 17.386719 L 18.886719 16.972656 C 18.777344 16.945312 18.664062 16.960938 18.570312 17.019531 C 18.472656 17.082031 18.410156 17.175781 18.390625 17.289062 L 17.429688 22.601562 L 15.617188 22.601562 L 16 13.820312 C 16.003906 13.710938 15.964844 13.601562 15.890625 13.523438 C 15.8125 13.445312 15.710938 13.402344 15.601562 13.402344 L 12.398438 13.402344 L 12.398438 10.601562 L 13.199219 10.601562 L 13.199219 9.800781 L 12.398438 9.800781 L 12.398438 9 L 11.601562 9 L 11.601562 9.800781 L 10.800781 9.800781 L 10.800781 10.601562 L 11.601562 10.601562 L 11.601562 13.402344 L 8.398438 13.402344 C 8.289062 13.402344 8.1875 13.445312 8.109375 13.523438 C 8.035156 13.601562 7.996094 13.710938 8 13.820312 L 8.382812 22.601562 L 6.398438 22.601562 L 6.398438 17.402344 C 6.398438 17.179688 6.222656 17 6 17 L 4.398438 17 L 4.398438 15 L 5.199219 15 L 5.199219 14.203125 L 4.398438 14.203125 L 4.398438 13.402344 L 3.601562 13.402344 L 3.601562 14.203125 L 2.800781 14.203125 L 2.800781 15 L 3.601562 15 L 3.601562 17 L 2 17 C 1.890625 17 1.78125 17.046875 1.707031 17.128906 C 1.628906 17.210938 1.59375 17.320312 1.601562 17.429688 L 1.96875 22.601562 L 0 22.601562 L 0 23.402344 L 24 23.402344 L 24 22.601562 Z M 18.820312 19.402344 L 19.3125 19.402344 L 19.621094 20.328125 L 20.382812 20.074219 L 19.980469 18.875 C 19.925781 18.710938 19.773438 18.601562 19.601562 18.601562 L 18.964844 18.601562 L 19.101562 17.855469 L 22.132812 18.667969 L 20.785156 22.601562 L 18.242188 22.601562 Z M 2.773438 22.601562 L 2.574219 19.800781 L 2.953125 19.800781 L 3.242188 20.378906 L 3.957031 20.023438 L 3.558594 19.222656 C 3.492188 19.085938 3.351562 19 3.199219 19 L 2.515625 19 L 2.429688 17.800781 L 5.601562 17.800781 L 5.601562 20.035156 L 4.71875 20.210938 C 4.597656 20.234375 4.496094 20.3125 4.441406 20.421875 L 4.039062 21.222656 L 4.757812 21.582031 L 5.070312 20.957031 L 5.601562 20.847656 L 5.601562 22.601562 Z M 9.183594 22.601562 L 8.902344 16.203125 L 9.351562 16.203125 L 9.640625 16.78125 C 9.679688 16.859375 9.742188 16.921875 9.820312 16.960938 L 10.621094 17.359375 L 10.976562 16.644531 L 10.296875 16.304688 L 9.957031 15.625 C 9.890625 15.488281 9.75 15.402344 9.601562 15.402344 L 8.871094 15.402344 L 8.816406 14.203125 L 15.183594 14.203125 L 15.03125 17.628906 L 14.304688 17.8125 C 14.171875 17.847656 14.066406 17.945312 14.023438 18.074219 L 13.6875 19.085938 L 12.675781 19.421875 L 12.929688 20.183594 L 14.128906 19.78125 C 14.246094 19.742188 14.339844 19.648438 14.382812 19.527344 L 14.710938 18.535156 L 15 18.464844 L 14.816406 22.601562 Z M 9.183594 22.601562 "/>
</g>
</svg>
